[Header]
FileType HTR
DataType HTRS
FileVersion 1
NumSegments 64
NumFrames 4
DataFrameRate 24
EulerRotationOrder ZYX
CalibrationUnits mm
RotationUnits Degrees
GlobalAxisofGravity Y
BoneLengthAxis Y
ScaleFactor 1.0
[SegmentNames&Hierarchy]
Hips	GLOBAL
Spine	Hips
Spine1	Spine
Spine2	Spine1
Neck	Spine2
Head	Neck
LeftEye	Head
RightEye	Head
LeftShoulder	Spine2
LeftArm	LeftShoulder
LeftForeArm	LeftArm
LeftHand	LeftForeArm
LeftHandThumb1	LeftHand
LeftHandThumb2	LeftHandThumb1
LeftHandThumb3	LeftHandThumb2
LeftHandThumb4	LeftHandThumb3
LeftHandIndex1	LeftHand
LeftHandIndex2	LeftHandIndex1
LeftHandIndex3	LeftHandIndex2
LeftHandIndex4	LeftHandIndex3
LeftHandMiddle1	LeftHand
LeftHandMiddle2	LeftHandMiddle1
LeftHandMiddle3	LeftHandMiddle2
LeftHandMiddle4	LeftHandMiddle3
LeftHandRing1	LeftHand
LeftHandRing2	LeftHandRing1
LeftHandRing3	LeftHandRing2
LeftHandRing4	LeftHandRing3
LeftHandPinky1	LeftHand
LeftHandPinky2	LeftHandPinky1
LeftHandPinky3	LeftHandPinky2
LeftHandPinky4	LeftHandPinky3
RightShoulder	Spine2
RightArm	RightShoulder
RightForeArm	RightArm
RightHand	RightForeArm
RightHandPinky1	RightHand
RightHandPinky2	RightHandPinky1
RightHandPinky3	RightHandPinky2
RightHandPinky4	RightHandPinky3
RightHandRing1	RightHand
RightHandRing2	RightHandRing1
RightHandRing3	RightHandRing2
RightHandRing4	RightHandRing3
RightHandMiddle1	RightHand
RightHandMiddle2	RightHandMiddle1
RightHandMiddle3	RightHandMiddle2
RightHandMiddle4	RightHandMiddle3
RightHandIndex1	RightHand
RightHandIndex2	RightHandIndex1
RightHandIndex3	RightHandIndex2
RightHandIndex4	RightHandIndex3
RightHandThumb1	RightHand
RightHandThumb2	RightHandThumb1
RightHandThumb3	RightHandThumb2
RightHandThumb4	RightHandThumb3
LeftUpLeg	Hips
LeftLeg	LeftUpLeg
LeftFoot	LeftLeg
LeftToeBase	LeftFoot
RightUpLeg	Hips
RightLeg	RightUpLeg
RightFoot	RightLeg
RightToeBase	RightFoot
[BasePosition]
Hips	0	0	0	0	0	0	1
Spine	0	0	0	0	0	0	1
Spine1	0	0	0	0	0	0	1
Spine2	0	0	0	0	0	0	1
Neck	0	0	0	0	0	0	1
Head	0	0	0	0	0	0	1
LeftEye	0	0	0	0	0	0	1
RightEye	0	0	0	0	0	0	1
LeftShoulder	0	0	0	0	0	0	1
LeftArm	0	0	0	0	0	0	1
LeftForeArm	0	0	0	0	0	0	1
LeftHand	0	0	0	0	0	0	1
LeftHandThumb1	0	0	0	0	0	0	1
LeftHandThumb2	0	0	0	0	0	0	1
LeftHandThumb3	0	0	0	0	0	0	1
LeftHandThumb4	0	0	0	0	0	0	1
LeftHandIndex1	0	0	0	0	0	0	1
LeftHandIndex2	0	0	0	0	0	0	1
LeftHandIndex3	0	0	0	0	0	0	1
LeftHandIndex4	0	0	0	0	0	0	1
LeftHandMiddle1	0	0	0	0	0	0	1
LeftHandMiddle2	0	0	0	0	0	0	1
LeftHandMiddle3	0	0	0	0	0	0	1
LeftHandMiddle4	0	0	0	0	0	0	1
LeftHandRing1	0	0	0	0	0	0	1
LeftHandRing2	0	0	0	0	0	0	1
LeftHandRing3	0	0	0	0	0	0	1
LeftHandRing4	0	0	0	0	0	0	1
LeftHandPinky1	0	0	0	0	0	0	1
LeftHandPinky2	0	0	0	0	0	0	1
LeftHandPinky3	0	0	0	0	0	0	1
LeftHandPinky4	0	0	0	0	0	0	1
RightShoulder	0	0	0	0	0	0	1
RightArm	0	0	0	0	0	0	1
RightForeArm	0	0	0	0	0	0	1
RightHand	0	0	0	0	0	0	1
RightHandPinky1	0	0	0	0	0	0	1
RightHandPinky2	0	0	0	0	0	0	1
RightHandPinky3	0	0	0	0	0	0	1
RightHandPinky4	0	0	0	0	0	0	1
RightHandRing1	0	0	0	0	0	0	1
RightHandRing2	0	0	0	0	0	0	1
RightHandRing3	0	0	0	0	0	0	1
RightHandRing4	0	0	0	0	0	0	1
RightHandMiddle1	0	0	0	0	0	0	1
RightHandMiddle2	0	0	0	0	0	0	1
RightHandMiddle3	0	0	0	0	0	0	1
RightHandMiddle4	0	0	0	0	0	0	1
RightHandIndex1	0	0	0	0	0	0	1
RightHandIndex2	0	0	0	0	0	0	1
RightHandIndex3	0	0	0	0	0	0	1
RightHandIndex4	0	0	0	0	0	0	1
RightHandThumb1	0	0	0	0	0	0	1
RightHandThumb2	0	0	0	0	0	0	1
RightHandThumb3	0	0	0	0	0	0	1
RightHandThumb4	0	0	0	0	0	0	1
LeftUpLeg	0	0	0	0	0	0	1
LeftLeg	0	0	0	0	0	0	1
LeftFoot	0	0	0	0	0	0	1
LeftToeBase	0	0	0	0	0	0	1
RightUpLeg	0	0	0	0	0	0	1
RightLeg	0	0	0	0	0	0	1
RightFoot	0	0	0	0	0	0	1
RightToeBase	0	0	0	0	0	0	1
[Hips]
75	40.10024643	1010.238281	6.437129974	9.526474953	-3.216968298	3.960716963	1.0
76	70.66690063	981.8914795	17.02522469	6.859073162	-7.793241978	6.062879562	1.0
77	92.50400543	955.6637573	11.12734795	5.070856094	-13.48159409	8.356271744	1.0
78	105.1338577	937.2580566	-2.930343151	4.475444317	-16.98600578	7.701726437	1.0
[Spine]
75	0	101.8159943	1.315000057	6.636116505	0.6143422723	4.15071249	1.0
76	0	101.8159943	1.315000057	6.672447205	1.302348852	1.844143391	1.0
77	0	101.8159943	1.315000057	8.270806313	1.278387427	-1.892742991	1.0
78	0	101.8159943	1.315000057	10.66323185	0.5088144541	-3.309791565	1.0
[Spine1]
75	0	100.8349991	-10.00800037	1.351417422	0.2913821042	2.117474079	1.0
76	0	100.8349991	-10.00800037	1.572830439	0.4185601175	1.817456365	1.0
77	0	100.8349991	-10.00800037	2.014615297	0.3905946314	0.9300082922	1.0
78	0	100.8349991	-10.00800037	2.488902092	0.2416666895	0.5118051767	1.0
[Spine2]
75	0	91	-13.73399925	1.347996354	0.3511337042	2.110752821	1.0
76	0	91	-13.73399925	1.563907623	0.47244066	1.813272715	1.0
77	0	91	-13.73399925	2.005421638	0.4268753231	0.9298161864	1.0
78	0	91	-13.73399925	2.484174252	0.2755081952	0.5114334226	1.0
[Neck]
75	0	166.7169952	-25.16200066	-0.3641236126	2.127253056	-8.025126457	1.0
76	0	166.7169952	-25.16200066	3.03208971	2.819017887	-8.248196602	1.0
77	0	166.7169952	-25.16200066	3.823286533	3.318668127	-6.503642559	1.0
78	0	166.7169952	-25.16200066	3.043588877	3.558326483	-4.966118813	1.0
[Head]
75	0	96.17900085	16.84999847	-21.05496025	4.754943848	-5.178730965	1.0
76	0	96.17900085	16.84999847	-22.54796219	6.023618698	-5.152338982	1.0
77	0	96.17900085	16.84999847	-27.04976654	8.913310051	-5.334736824	1.0
78	0	96.17900085	16.84999847	-31.52661896	11.26557255	-4.958739281	1.0
[LeftEye]
75	30.6760006	64.09500122	92.83599854	0	0	0	1.0
76	30.6760006	64.09500122	92.83599854	0	0	0	1.0
77	30.6760006	64.09500122	92.83599854	0	0	0	1.0
78	30.6760006	64.09500122	92.83599854	0	0	0	1.0
[RightEye]
75	-30.6760006	64.09500122	92.83499908	0	0	0	1.0
76	-30.6760006	64.09500122	92.83499908	0	0	0	1.0
77	-30.6760006	64.09500122	92.83499908	0	0	0	1.0
78	-30.6760006	64.09500122	92.83499908	0	0	0	1.0
[LeftShoulder]
75	45.70400238	109.4599991	-26.28000069	5.152742386	-26.48545837	-10.96259975	1.0
76	45.70400238	109.4599991	-26.28000069	5.326921463	-25.09629059	-12.2088995	1.0
77	45.70400238	109.4599991	-26.28000069	5.320687771	-24.89105034	-12.31147766	1.0
78	45.70400238	109.4599991	-26.28000069	5.287305355	-25.447258	-11.90826321	1.0
[LeftArm]
75	105.923996	-5.24600029	-22.32099915	-2.18130374	-33.94031525	-49.5703125	1.0
76	105.923996	-5.24600029	-22.32099915	4.420174122	-27.31146812	-53.11501694	1.0
77	105.923996	-5.24600029	-22.32099915	8.565805435	-22.94054413	-48.2077446	1.0
78	105.923996	-5.24600029	-22.32099915	10.60520935	-23.18785286	-38.84089661	1.0
[LeftForeArm]
75	278.414978	-0.0009999999311	0	1.677020464e-06	-82.87362671	-0.0001467469992	1.0
76	278.414978	-0.0009999999311	0	-2.754593424e-06	-76.31364441	-0.0002201530297	1.0
77	278.414978	-0.0009999999311	0	1.663367402e-05	-75.61019897	-0.0002357398189	1.0
78	278.414978	-0.0009999999311	0	-3.772070704e-05	-79.47354889	-0.000190547813	1.0
[LeftHand]
75	283.2879944	0	0	66.62309265	-37.51887512	-6.091020584	1.0
76	283.2879944	0	0	60.21490479	-29.50589371	0.372233659	1.0
77	283.2879944	0	0	52.45652008	-9.011138916	8.55621624	1.0
78	283.2879944	0	0	47.03169632	13.87007618	12.90343189	1.0
[LeftHandThumb1]
75	24.6609993	-15.75	26.8239994	-1.441463232	-8.319261551	8.653964996	1.0
76	24.6609993	-15.75	26.8239994	-1.44146955	-8.319264412	8.653967857	1.0
77	24.6609993	-15.75	26.8239994	-1.441468358	-8.319270134	8.653961182	1.0
78	24.6609993	-15.75	26.8239994	-1.441466212	-8.319248199	8.653961182	1.0
[LeftHandThumb2]
75	32.29800034	-18.64699936	18.64699936	6.693867207	35.79314804	-1.551221728	1.0
76	32.29800034	-18.64699936	18.64699936	6.693883419	35.79314041	-1.551229358	1.0
77	32.29800034	-18.64699936	18.64699936	6.693877697	35.79314041	-1.551232696	1.0
78	32.29800034	-18.64699936	18.64699936	6.69387579	35.79314804	-1.551222324	1.0
[LeftHandThumb3]
75	26.52600098	-15.31499958	15.31499958	-0.8579810858	28.98579025	24.39993477	1.0
76	26.52600098	-15.31499958	15.31499958	-0.8579836488	28.98578453	24.3999424	1.0
77	26.52600098	-15.31499958	15.31499958	-0.8579856157	28.98576927	24.39993858	1.0
78	26.52600098	-15.31499958	15.31499958	-0.8579846621	28.98579597	24.39994049	1.0
[LeftHandThumb4]
75	19.54599953	-11.28499985	11.28499985	0	0	0	1.0
76	19.54599953	-11.28499985	11.28499985	0	0	0	1.0
77	19.54599953	-11.28499985	11.28499985	0	0	0	1.0
78	19.54599953	-11.28499985	11.28499985	0	0	0	1.0
[LeftHandIndex1]
75	91.09299469	-5.170999527	22.60099792	2.074715376	6.374513149	-51.86821365	1.0
76	91.09299469	-5.170999527	22.60099792	2.074716806	6.374521732	-51.86822891	1.0
77	91.09299469	-5.170999527	22.60099792	2.074713469	6.374513626	-51.86821747	1.0
78	91.09299469	-5.170999527	22.60099792	2.074712753	6.374518394	-51.86822128	1.0
[LeftHandIndex2]
75	36.76399994	0	0	-5.084242344	5.778053284	-82.67964935	1.0
76	36.76399994	0	0	-5.084228039	5.778058052	-82.67964172	1.0
77	36.76399994	0	0	-5.084246159	5.778066158	-82.67964172	1.0
78	36.76399994	0	0	-5.08424139	5.778065205	-82.67962646	1.0
[LeftHandIndex3]
75	28.83100128	0	0	-6.449673653	5.791762352	-96.16449738	1.0
76	28.83100128	0	0	-6.449676514	5.791759968	-96.16448975	1.0
77	28.83100128	0	0	-6.449673653	5.791764259	-96.16449738	1.0
78	28.83100128	0	0	-6.449669838	5.791763306	-96.16449738	1.0
[LeftHandIndex4]
75	23.92700005	0	0	0	0	0	1.0
76	23.92700005	0	0	0	0	0	1.0
77	23.92700005	0	0	0	0	0	1.0
78	23.92700005	0	0	0	0	0	1.0
[LeftHandMiddle1]
75	95.33399963	0	0	-6.494763851	5.273270607	-74.30396271	1.0
76	95.33399963	0	0	-6.494753838	5.273265839	-74.30395508	1.0
77	95.33399963	0	0	-6.494755268	5.273261547	-74.30393219	1.0
78	95.33399963	0	0	-6.49476099	5.273269176	-74.30393982	1.0
[LeftHandMiddle2]
75	36.98199844	0	0	-7.583497524	5.554397583	-107.5965881	1.0
76	36.98199844	0	0	-7.583490849	5.554390907	-107.5966034	1.0
77	36.98199844	0	0	-7.583490849	5.554381847	-107.5966034	1.0
78	36.98199844	0	0	-7.583485126	5.554392815	-107.5965881	1.0
[LeftHandMiddle3]
75	29.50900078	0	0	-1.617066145	4.031612873	-43.69761658	1.0
76	29.50900078	0	0	-1.617079377	4.031624317	-43.69761658	1.0
77	29.50900078	0	0	-1.617085934	4.031633377	-43.69759369	1.0
78	29.50900078	0	0	-1.6170789	4.031630993	-43.69760132	1.0
[LeftHandMiddle4]
75	28.3390007	0	0	0	0	0	1.0
76	28.3390007	0	0	0	0	0	1.0
77	28.3390007	0	0	0	0	0	1.0
78	28.3390007	0	0	0	0	0	1.0
[LeftHandRing1]
75	91.04499817	-0.4390000105	-18.65100098	-8.449707985	1.972095728	-92.66125488	1.0
76	91.04499817	-0.4390000105	-18.65100098	-8.449699402	1.972094536	-92.66124725	1.0
77	91.04499817	-0.4390000105	-18.65100098	-8.449707985	1.972096562	-92.66124725	1.0
78	91.04499817	-0.4390000105	-18.65100098	-8.449707985	1.972097397	-92.66123962	1.0
[LeftHandRing2]
75	31.54000092	0	0	-5.44383812	5.812754631	-86.23971558	1.0
76	31.54000092	0	0	-5.443834782	5.812755108	-86.23973083	1.0
77	31.54000092	0	0	-5.443843365	5.812763691	-86.23973846	1.0
78	31.54000092	0	0	-5.443831921	5.812756538	-86.23972321	1.0
[LeftHandRing3]
75	29.37700081	0	0	-1.453044891	3.853057384	-41.31212616	1.0
76	29.37700081	0	0	-1.453042984	3.853065491	-41.31213379	1.0
77	29.37700081	0	0	-1.453042269	3.853067875	-41.31211853	1.0
78	29.37700081	0	0	-1.453050852	3.853072166	-41.31211472	1.0
[LeftHandRing4]
75	26.47500038	0	0	0	0	0	1.0
76	26.47500038	0	0	0	0	0	1.0
77	26.47500038	0	0	0	0	0	1.0
78	26.47500038	0	0	0	0	0	1.0
[LeftHandPinky1]
75	80.77799988	-4.887000084	-38.06099701	-16.6823864	2.778092623	-98.34422302	1.0
76	80.77799988	-4.887000084	-38.06099701	-16.68237686	2.778104067	-98.34423828	1.0
77	80.77799988	-4.887000084	-38.06099701	-16.68238068	2.778095007	-98.34423828	1.0
78	80.77799988	-4.887000084	-38.06099701	-16.6823864	2.778095961	-98.34423828	1.0
[LeftHandPinky2]
75	36	0	0	-2.200031757	4.562770367	-51.46560287	1.0
76	36	0	0	-2.200020552	4.562768936	-51.46560287	1.0
77	36	0	0	-2.200029135	4.562787056	-51.4656105	1.0
78	36	0	0	-2.200023174	4.56276083	-51.46560669	1.0
[LeftHandPinky3]
75	21.14200211	0	0	-2.346135378	4.675044537	-53.27988434	1.0
76	21.14200211	0	0	-2.346133471	4.675049305	-53.27987289	1.0
77	21.14200211	0	0	-2.346142292	4.675044537	-53.27986908	1.0
78	21.14200211	0	0	-2.346147537	4.675050259	-53.27988052	1.0
[LeftHandPinky4]
75	19.75699997	0	0	0	0	0	1.0
76	19.75699997	0	0	0	0	0	1.0
77	19.75699997	0	0	0	0	0	1.0
78	19.75699997	0	0	0	0	0	1.0
[RightShoulder]
75	-45.70000076	109.4620056	-26.28000069	4.145525455	25.64943314	6.59096384	1.0
76	-45.70000076	109.4620056	-26.28000069	4.205615997	25.21663857	6.813083649	1.0
77	-45.70000076	109.4620056	-26.28000069	3.636775494	26.24393654	4.568109512	1.0
78	-45.70000076	109.4620056	-26.28000069	2.698036194	27.86784554	1.181300282	1.0
[RightArm]
75	-105.9280014	-5.248000145	-22.32099915	13.12358856	48.0142746	56.76522827	1.0
76	-105.9280014	-5.248000145	-22.32099915	22.60366249	44.87456894	64.62284088	1.0
77	-105.9280014	-5.248000145	-22.32099915	32.76326752	50.19124603	65.13098907	1.0
78	-105.9280014	-5.248000145	-22.32099915	36.70650482	60.07495499	55.74587631	1.0
[RightForeArm]
75	-278.414978	0	0	-0.0003065233468	88.81455231	-0.0002948758483	1.0
76	-278.414978	0	0	-8.680532119e-06	77.30640411	-1.705557952e-05	1.0
77	-278.414978	0	0	-2.720528073e-06	66.00566864	-1.584389247e-05	1.0
78	-278.414978	0	0	-4.928084763e-06	59.82287216	-8.001957212e-06	1.0
[RightHand]
75	-283.2879944	0	0.0009999999311	3.382954121	3.088543653	-26.64392853	1.0
76	-283.2879944	0	0.0009999999311	8.662796021	1.608048916	-10.90017796	1.0
77	-283.2879944	0	0.0009999999311	7.032769203	-5.283086777	0.4365536571	1.0
78	-283.2879944	0	0.0009999999311	-0.4894010425	-11.15706062	11.23059273	1.0
[RightHandPinky1]
75	-80.76699829	-4.885000229	-38.06000137	-15.18223763	-1.629501581	97.58633423	1.0
76	-80.76699829	-4.885000229	-38.06000137	-15.18223572	-1.629495025	97.5863266	1.0
77	-80.76699829	-4.885000229	-38.06000137	-15.18223667	-1.629497051	97.5863266	1.0
78	-80.76699829	-4.885000229	-38.06000137	-15.18223667	-1.629494905	97.58633423	1.0
[RightHandPinky2]
75	-36	0	0.0009999999311	-1.749817848	-3.626897335	51.51878738	1.0
76	-36	0	0.0009999999311	-1.749822021	-3.626878023	51.51877594	1.0
77	-36	0	0.0009999999311	-1.749816298	-3.626890182	51.5187912	1.0
78	-36	0	0.0009999999311	-1.74982667	-3.626893044	51.51877594	1.0
[RightHandPinky3]
75	-21.14200211	0	0	-1.867233157	-3.717082262	53.33227539	1.0
76	-21.14200211	0	0	-1.867236495	-3.717085838	53.33227158	1.0
77	-21.14200211	0	0	-1.867232203	-3.717076778	53.33226013	1.0
78	-21.14200211	0	0	-1.867242694	-3.717071295	53.33223724	1.0
[RightHandPinky4]
75	-19.75699997	0	0	0	0	0	1.0
76	-19.75699997	0	0	0	0	0	1.0
77	-19.75699997	0	0	0	0	0	1.0
78	-19.75699997	0	0	0	0	0	1.0
[RightHandRing1]
75	-91.03599548	-0.4390000105	-18.65100098	-7.065033913	-0.7974098325	91.91007996	1.0
76	-91.03599548	-0.4390000105	-18.65100098	-7.065054417	-0.7974017859	91.91008759	1.0
77	-91.03599548	-0.4390000105	-18.65100098	-7.065045357	-0.7974070311	91.91009521	1.0
78	-91.03599548	-0.4390000105	-18.65100098	-7.065030575	-0.7974033356	91.91007996	1.0
[RightHandRing2]
75	-31.54000092	0	0	-4.327732086	-4.620625973	86.24687195	1.0
76	-31.54000092	0	0	-4.327750683	-4.620638847	86.24687195	1.0
77	-31.54000092	0	0	-4.327754974	-4.620618343	86.24688721	1.0
78	-31.54000092	0	0	-4.327738762	-4.620631218	86.24687958	1.0
[RightHandRing3]
75	-29.37700081	0	0	-1.156987548	-3.06392765	41.36634445	1.0
76	-29.37700081	0	0	-1.156975627	-3.063929319	41.36633301	1.0
77	-29.37700081	0	0	-1.156968951	-3.063935757	41.36633682	1.0
78	-29.37700081	0	0	-1.156969309	-3.063925266	41.36634445	1.0
[RightHandRing4]
75	-26.47500038	0	0	0	0	0	1.0
76	-26.47500038	0	0	0	0	0	1.0
77	-26.47500038	0	0	0	0	0	1.0
78	-26.47500038	0	0	0	0	0	1.0
[RightHandMiddle1]
75	-95.32500458	0	0	-5.490194321	-4.098503113	73.57289886	1.0
76	-95.32500458	0	0	-5.490190983	-4.098495007	73.57289886	1.0
77	-95.32500458	0	0	-5.490188122	-4.098509312	73.57292175	1.0
78	-95.32500458	0	0	-5.490186691	-4.098500729	73.57289124	1.0
[RightHandMiddle2]
75	-36.98199844	0	0	-6.026567936	-4.415502071	107.5651321	1.0
76	-36.98199844	0	0	-6.026591778	-4.415491581	107.5651169	1.0
77	-36.98199844	0	0	-6.026574612	-4.415498257	107.5651245	1.0
78	-36.98199844	0	0	-6.026586533	-4.415487766	107.5651169	1.0
[RightHandMiddle3]
75	-29.50900078	0	0	-1.287459373	-3.207858801	43.75225449	1.0
76	-29.50900078	0	0	-1.287460089	-3.207858086	43.75225449	1.0
77	-29.50900078	0	0	-1.287467241	-3.207849264	43.7522583	1.0
78	-29.50900078	0	0	-1.287445188	-3.207871437	43.75225067	1.0
[RightHandMiddle4]
75	-28.3390007	0	0.0009999999311	0	0	0	1.0
76	-28.3390007	0	0.0009999999311	0	0	0	1.0
77	-28.3390007	0	0.0009999999311	0	0	0	1.0
78	-28.3390007	0	0.0009999999311	0	0	0	1.0
[RightHandIndex1]
75	-91.08300018	-5.167999744	22.60099792	2.643076897	-5.360725403	51.18567657	1.0
76	-91.08300018	-5.167999744	22.60099792	2.64306426	-5.360716343	51.18568039	1.0
77	-91.08300018	-5.167999744	22.60099792	2.643065691	-5.360728741	51.18569183	1.0
78	-91.08300018	-5.167999744	22.60099792	2.643077374	-5.360726357	51.1856842	1.0
[RightHandIndex2]
75	-36.76399994	0	0	-4.04224968	-4.59307909	82.6934433	1.0
76	-36.76399994	0	0	-4.042252064	-4.593090057	82.69343567	1.0
77	-36.76399994	0	0	-4.042240143	-4.593079567	82.6934433	1.0
78	-36.76399994	0	0	-4.042248249	-4.593072414	82.69343567	1.0
[RightHandIndex3]
75	-28.83100128	0	0	-5.126291275	-4.603963375	96.15283966	1.0
76	-28.83100128	0	0	-5.126282215	-4.60396719	96.15281677	1.0
77	-28.83100128	0	0	-5.126284599	-4.6039505	96.15284729	1.0
78	-28.83100128	0	0	-5.126285076	-4.603965759	96.15284729	1.0
[RightHandIndex4]
75	-23.92700005	0	0	0	0	0	1.0
76	-23.92700005	0	0	0	0	0	1.0
77	-23.92700005	0	0	0	0	0	1.0
78	-23.92700005	0	0	0	0	0	1.0
[RightHandThumb1]
75	-24.64799881	-15.72700024	26.82600021	-2.38824296	10.1685791	-8.287051201	1.0
76	-24.64799881	-15.72700024	26.82600021	-2.388236761	10.16858387	-8.287037849	1.0
77	-24.64799881	-15.72700024	26.82600021	-2.388242483	10.16858673	-8.28703022	1.0
78	-24.64799881	-15.72700024	26.82600021	-2.388241529	10.1685915	-8.287025452	1.0
[RightHandThumb2]
75	-32.29800034	-18.64699936	18.64699936	7.070506573	-37.46694183	0.6013884544	1.0
76	-32.29800034	-18.64699936	18.64699936	7.070508957	-37.46692657	0.6013932228	1.0
77	-32.29800034	-18.64699936	18.64699936	7.070497513	-37.4669342	0.6013993025	1.0
78	-32.29800034	-18.64699936	18.64699936	7.070486546	-37.46693802	0.6013934612	1.0
[RightHandThumb3]
75	-26.52600098	-15.31399918	15.31399918	3.291615486	-34.41184235	-26.10048103	1.0
76	-26.52600098	-15.31399918	15.31399918	3.291619539	-34.4118576	-26.10048485	1.0
77	-26.52600098	-15.31399918	15.31399918	3.291635513	-34.41187286	-26.1004982	1.0
78	-26.52600098	-15.31399918	15.31399918	3.291641951	-34.41184998	-26.10050583	1.0
[RightHandThumb4]
75	-19.54599953	-11.28499985	11.28499985	0	0	0	1.0
76	-19.54599953	-11.28499985	11.28499985	0	0	0	1.0
77	-19.54599953	-11.28499985	11.28499985	0	0	0	1.0
78	-19.54599953	-11.28499985	11.28499985	0	0	0	1.0
[LeftUpLeg]
75	82.07800293	-67.51699829	-15.99599934	-24.29867935	8.928805351	13.19641495	1.0
76	82.07800293	-67.51699829	-15.99599934	-17.06129456	4.942899704	8.407117844	1.0
77	82.07800293	-67.51699829	-15.99599934	-17.31624031	9.984680176	4.216280937	1.0
78	82.07800293	-67.51699829	-15.99599934	-20.41080856	17.88204575	4.650235653	1.0
[LeftLeg]
75	0	-443.7049866	2.845999956	28.66020393	5.33490324	3.234863758	1.0
76	0	-443.7049866	2.845999956	27.56365967	8.680696487	5.421165943	1.0
77	0	-443.7049866	2.845999956	33.61854935	7.077991009	5.870785236	1.0
78	0	-443.7049866	2.845999956	40.97291565	5.293253422	5.667612553	1.0
[LeftFoot]
75	0	-444.2789917	-29.8219986	14.09748363	5.134509563	-19.13990021	1.0
76	0	-444.2789917	-29.8219986	-6.283268929	7.808469296	-16.11398125	1.0
77	0	-444.2789917	-29.8219986	-17.57545662	8.071438789	-18.96792412	1.0
78	0	-444.2789917	-29.8219986	-20.25000191	3.664142847	-19.63266754	1.0
[LeftToeBase]
75	0	-87.28699493	107.1060028	-10.51653194	-0.2323285788	-1.355760336	1.0
76	0	-87.28699493	107.1060028	-8.601576805	-5.657950169e-06	2.633326858e-06	1.0
77	0	-87.28699493	107.1060028	-2.087186575	2.175665031e-06	1.680161404e-06	1.0
78	0	-87.28699493	107.1060028	0.02527178451	0.0001768007496	-0.04382871091	1.0
[RightUpLeg]
75	-82.07800293	-67.51699829	-15.99599934	-26.22661972	-5.96319294	-9.171512604	1.0
76	-82.07800293	-67.51699829	-15.99599934	-29.5009594	-0.962411046	-14.23134899	1.0
77	-82.07800293	-67.51699829	-15.99599934	-39.22413254	-1.434298992	-19.21333313	1.0
78	-82.07800293	-67.51699829	-15.99599934	-54.7600975	-7.310604572	-19.05965233	1.0
[RightLeg]
75	0	-443.7049866	2.861999989	29.41875648	-8.357699394	-5.471213341	1.0
76	0	-443.7049866	2.861999989	39.83847809	-7.40451479	-7.001801014	1.0
77	0	-443.7049866	2.861999989	52.57311249	-3.857935905	-5.399254322	1.0
78	0	-443.7049866	2.861999989	70.6760788	-0.8804947138	-2.355442524	1.0
[RightFoot]
75	0	-444.2770081	-29.83799934	-7.055294991	-6.713479042	10.12717724	1.0
76	0	-444.2770081	-29.83799934	-14.30197716	-8.055776596	10.69982147	1.0
77	0	-444.2770081	-29.83799934	-3.412961483	-3.856180906	12.99288368	1.0
78	0	-444.2770081	-29.83799934	5.984850407	-0.5287504196	16.86233711	1.0
[RightToeBase]
75	0	-87.28699493	107.1060028	-3.62366581	-5.529343252e-05	-0.001018106937	1.0
76	0	-87.28699493	107.1060028	-4.401420593	-1.089232319e-05	7.608406349e-07	1.0
77	0	-87.28699493	107.1060028	-13.1796875	0.4703080654	2.3446064	1.0
78	0	-87.28699493	107.1060028	-9.143131256	1.905264639e-06	-1.230119864e-07	1.0
[EndOfFile]
